<svg width="21" height="20" viewBox="0 0 21 20" fill="none" xmlns="http://www.w3.org/2000/svg">
<path d="M20.7988 20V16.832H18.3868L17.1428 15.46L15.8948 16.832H7.93883V10.432H5.37083L8.55883 3.22H11.6308L12.7268 5.688V3.22H16.5268L17.1868 5.08L17.8508 3.22H20.7988V0H0.798828V20H20.7988ZM18.7908 16.028H20.7988L18.1428 13.212L20.7988 10.428H18.8228L17.1828 12.22L15.5588 10.428H13.5508L16.1908 13.228L13.5508 16.028H15.5028L17.1508 14.22L18.7908 16.028ZM19.2628 13.216L20.7988 14.852V11.596L19.2628 13.216ZM10.3148 14.736V13.864H13.4748V12.6H10.3148V11.728H13.5548V10.432H8.79083V16.028H13.5548V14.732H10.3148V14.736ZM19.2868 9.62H20.7988V4.024H18.4468L17.1908 7.512L15.9428 4.024H13.5508V9.62H15.0628V5.704L16.5028 9.62H17.8468L19.2868 5.692V9.62ZM11.8348 9.62H13.5548L11.0828 4.024H9.11883L6.64683 9.62H8.32683L8.79083 8.5H11.3668L11.8348 9.62ZM10.8348 7.244H9.31483L10.0748 5.412L10.8348 7.244Z" fill="#006FCF"/>
</svg>
