<svg width="19" height="13" viewBox="0 0 19 13" fill="none" xmlns="http://www.w3.org/2000/svg">
<path d="M2.78328 0L15.2307 0C16.7625 0 18.014 1.25146 18.014 2.78328V9.73571C18.014 11.2675 16.7625 12.519 15.2307 12.519H2.78328C1.25146 12.519 0 11.2675 0 9.73571L0 2.78328C0 1.25146 1.25146 0 2.78328 0ZM7.8879 7.80555L2.811 7.79246C2.00815 7.79041 1.98864 6.74621 2.79149 6.74826L7.86865 6.7616C8.6715 6.76365 8.69049 7.80785 7.8879 7.80555ZM13.7251 7.27203C14.4887 7.27203 15.1073 7.89071 15.1073 8.65405C15.1073 9.4174 14.4887 10.0363 13.7251 10.0363C13.3588 10.0363 13.0261 9.89372 12.7788 9.66133C12.5313 9.89372 12.1984 10.0363 11.8321 10.0363C11.0687 10.0363 10.4501 9.4174 10.4501 8.65405C10.4501 7.89071 11.0687 7.27203 11.8321 7.27203C12.1984 7.27203 12.5313 7.41439 12.7788 7.64703C13.0261 7.41439 13.3588 7.27203 13.7251 7.27203ZM7.84418 9.97807L2.76727 9.96499C1.96443 9.96294 1.98864 8.91055 2.79149 8.91234L7.86865 8.92594C8.6715 8.928 8.64676 9.98038 7.84418 9.97807ZM0.989962 5.18829L1.02215 9.73571C1.02215 10.7032 1.81576 11.4968 2.78328 11.4968L15.2782 11.5068C16.2457 11.5068 17.0393 10.7132 17.0393 9.74564L17.0071 5.19821L0.989962 5.18829ZM1.01083 3.14753L16.9805 3.14753L16.9918 2.78328C16.9918 1.81576 16.1982 1.02215 15.2307 1.02215L2.78328 1.02215C1.81576 1.02215 1.02215 1.81576 1.02215 2.78328L1.01083 3.14753Z" fill="#CACCD4"/>
</svg>
