<svg width="24" height="18" viewBox="0 0 24 18" fill="none" xmlns="http://www.w3.org/2000/svg">
<path d="M22.5217 0H1.47829C0.661852 0 0 0.661852 0 1.47829V16.2612C0 17.0776 0.661852 17.7395 1.47829 17.7395H22.5217C23.3381 17.7395 24 17.0776 24 16.2612V1.47829C24 0.661852 23.3381 0 22.5217 0Z" fill="#E6E6E6"/>
<path d="M24 1.92297H0V6.09696H24V1.92297Z" fill="#B7B7B7"/>
<path d="M21.4354 6.83606H1.47852V10.5318H21.4354V6.83606Z" fill="white"/>
<path fill-rule="evenodd" clip-rule="evenodd" d="M17.7402 9.05336H18.4794V9.79251H17.7402V9.05336ZM18.4794 8.31422H19.2185V9.05336H18.4794V8.31422ZM19.2185 9.05336H19.9577V9.79251H19.2185V9.05336ZM17.7402 7.57507H18.4794V8.31422H17.7402V7.57507ZM19.2185 7.57507H19.9577V8.31422H19.2185V7.57507Z" fill="#FF0000"/>
<path fill-rule="evenodd" clip-rule="evenodd" d="M14.7832 9.05336H15.5223V9.79251H14.7832V9.05336ZM15.5223 8.31422H16.2615V9.05336H15.5223V8.31422ZM16.2615 9.05336H17.0006V9.79251H16.2615V9.05336ZM14.7832 7.57507H15.5223V8.31422H14.7832V7.57507ZM16.2615 7.57507H17.0006V8.31422H16.2615V7.57507Z" fill="#FF0000"/>
<path fill-rule="evenodd" clip-rule="evenodd" d="M11.8262 9.05336H12.5653V9.79251H11.8262V9.05336ZM12.5653 8.31422H13.3045V9.05336H12.5653V8.31422ZM13.3045 9.05336H14.0436V9.79251H13.3045V9.05336ZM11.8262 7.57507H12.5653V8.31422H11.8262V7.57507ZM13.3045 7.57507H14.0436V8.31422H13.3045V7.57507Z" fill="#FF0000"/>
</svg>
