<svg width="29" height="20" viewBox="0 0 29 20" fill="none" xmlns="http://www.w3.org/2000/svg">
<path d="M28.0073 18.1007C28.0073 19.0867 27.1883 19.8876 26.1796 19.8876H2.86045C1.84819 19.8876 1.03125 19.0867 1.03125 18.1007V1.98459C1.03125 0.998009 1.84819 0.196655 2.86045 0.196655H26.1796C27.1883 0.196655 28.0073 0.998009 28.0073 1.98459V18.1007Z" fill="white"/>
<path d="M2.78056 20C1.68827 19.999 0.798828 19.1352 0.798828 18.0605V1.94447C0.798828 0.868798 1.68827 0.00453143 2.78056 0H26.1002C27.191 0.00453143 28.0819 0.868798 28.0819 1.94447V18.0605C28.0819 19.1352 27.191 19.999 26.1002 20H2.78056ZM1.10639 1.94447V18.0605C1.10991 18.9565 1.85336 19.6904 2.78056 19.6924H26.1002C27.0259 19.6904 27.7704 18.9565 27.7724 18.0605V1.94447C27.7704 1.04397 27.0259 0.31208 26.1002 0.31208H2.78056C1.85336 0.31208 1.10991 1.04397 1.10639 1.94447Z" fill="#007EB8"/>
<path d="M15.5066 11.161C18.0601 11.1726 20.3907 9.0791 20.3907 6.5331C20.3907 3.74851 18.0601 1.82367 15.5066 1.82367H13.3109C10.7282 1.82367 8.60352 3.74851 8.60352 6.5331C8.60352 9.0791 10.7282 11.1726 13.3109 11.161H15.5066Z" fill="#007EB8"/>
<path d="M13.3209 2.20929C10.9612 2.21079 9.0489 4.12206 9.04688 6.48483C9.0489 8.84307 10.9612 10.7563 13.3209 10.7563C15.6827 10.7563 17.5969 8.84307 17.5969 6.48483C17.5969 4.12206 15.6827 2.21079 13.3209 2.20929ZM10.6113 6.48483C10.6149 5.33062 11.3362 4.34555 12.3504 3.95595V9.01119C11.3362 8.62108 10.6149 7.63803 10.6113 6.48483ZM14.2904 9.0137V3.95595C15.3082 4.34454 16.0295 5.32811 16.032 6.48483C16.0295 7.64054 15.3082 8.6231 14.2904 9.0137Z" fill="white"/>
<path d="M3.43003 12.0729C3.43003 11.6319 3.19999 11.6586 2.97852 11.6546V11.5287C3.1713 11.5353 3.3671 11.5353 3.55686 11.5353C3.76476 11.5353 4.04412 11.5287 4.40705 11.5287C5.67803 11.5287 6.37015 12.3764 6.37015 13.2447C6.37015 13.732 6.08675 14.9556 4.34966 14.9556C4.09899 14.9556 3.86744 14.943 3.63689 14.943C3.41794 14.943 3.19999 14.9511 2.97852 14.9556V14.8278C3.27348 14.7976 3.41794 14.7865 3.43003 14.4533V12.0729ZM3.91024 14.3737C3.91024 14.7528 4.18305 14.7976 4.42315 14.7976C5.48423 14.7976 5.83155 13.9972 5.83155 13.2653C5.83155 12.3462 5.24413 11.6838 4.2958 11.6838C4.09396 11.6838 4.00083 11.6974 3.91024 11.7034V14.3737Z" fill="#2F292A"/>
<path d="M6.54492 14.8277H6.63703C6.77645 14.8277 6.87412 14.8277 6.87412 14.6651V13.3322C6.87412 13.1183 6.79961 13.0891 6.6164 12.989V12.9114C6.84945 12.8425 7.12328 12.7494 7.14239 12.7343C7.17713 12.7161 7.20733 12.7081 7.2325 12.7081C7.25566 12.7081 7.26574 12.7403 7.26574 12.7796V14.6651C7.26574 14.8277 7.37445 14.8277 7.51087 14.8277H7.59643V14.9556C7.42832 14.9556 7.25566 14.943 7.07948 14.943C6.9018 14.943 6.7241 14.9511 6.54492 14.9556V14.8277ZM7.06842 11.9545C6.94207 11.9545 6.83032 11.8363 6.83032 11.7104C6.83032 11.5856 6.9476 11.4728 7.06842 11.4728C7.19778 11.4728 7.31053 11.5755 7.31053 11.7104C7.31053 11.8403 7.20129 11.9545 7.06842 11.9545Z" fill="#2F292A"/>
<path d="M8.06101 13.3612C8.06101 13.1815 8.00764 13.1332 7.77661 13.0396V12.9465C7.98902 12.8785 8.18935 12.8116 8.42443 12.7079C8.43953 12.7079 8.45312 12.7205 8.45312 12.7597V13.0768C8.73298 12.8785 8.97308 12.7079 9.3038 12.7079C9.72008 12.7079 9.86907 13.0144 9.86907 13.397V14.6654C9.86907 14.8275 9.97579 14.8275 10.1132 14.8275H10.2008V14.9554C10.0291 14.9554 9.858 14.9428 9.68031 14.9428C9.50665 14.9428 9.32846 14.9514 9.15078 14.9554V14.8275H9.24137C9.3793 14.8275 9.47494 14.8275 9.47494 14.6654V13.3925C9.47494 13.1126 9.3038 12.9762 9.02292 12.9762C8.86637 12.9762 8.6152 13.103 8.45312 13.2112V14.6654C8.45312 14.8275 8.56185 14.8275 8.69925 14.8275H8.78685V14.9554C8.6152 14.9554 8.44405 14.9428 8.26586 14.9428C8.0907 14.9428 7.912 14.9514 7.73633 14.9554V14.8275H7.82644C7.96133 14.8275 8.06101 14.8275 8.06101 14.6654V13.3612Z" fill="#2F292A"/>
<path d="M10.5743 13.5984C10.5672 13.6433 10.5672 13.7172 10.5743 13.8818C10.604 14.3505 10.905 14.7345 11.2981 14.7345C11.5699 14.7345 11.7798 14.5881 11.96 14.4038L12.029 14.4718C11.804 14.7713 11.5241 15.028 11.1214 15.028C10.3392 15.028 10.1816 14.2725 10.1816 13.9589C10.1816 12.9934 10.831 12.708 11.1748 12.708C11.5724 12.708 11.9998 12.9602 12.0048 13.4812C12.0048 13.5124 12.0048 13.5385 11.9998 13.5693L11.957 13.5984H10.5743ZM11.4461 13.4409C11.5699 13.4409 11.5825 13.3785 11.5825 13.3196C11.5825 13.0699 11.429 12.8691 11.1556 12.8691C10.8551 12.8691 10.6498 13.0896 10.5904 13.4409H11.4461Z" fill="#2F292A"/>
<path d="M12.1152 14.8276H12.2491C12.3845 14.8276 12.4857 14.8276 12.4857 14.6655V13.2853C12.4857 13.1333 12.3055 13.1031 12.23 13.0628V12.9893C12.5869 12.8383 12.7847 12.7079 12.83 12.7079C12.8577 12.7079 12.8728 12.7256 12.8728 12.7739V13.2158H12.8823C13.0067 13.0246 13.211 12.7079 13.5115 12.7079C13.6349 12.7079 13.7914 12.7935 13.7914 12.9692C13.7914 13.1031 13.6978 13.2204 13.5609 13.2204C13.4099 13.2204 13.4099 13.1031 13.2387 13.1031C13.1531 13.1031 12.8783 13.2158 12.8783 13.5123V14.6655C12.8783 14.8276 12.9755 14.8276 13.1134 14.8276H13.3887V14.9555C13.1179 14.9514 12.9105 14.9429 12.7016 14.9429C12.4993 14.9429 12.2909 14.9514 12.1152 14.9555V14.8276Z" fill="#2F292A"/>
<path d="M14.0085 14.2724C14.0729 14.595 14.2703 14.8704 14.6271 14.8704C14.9176 14.8704 15.0248 14.6952 15.0248 14.522C15.0248 13.9427 13.9537 14.1294 13.9537 13.3382C13.9537 13.0628 14.1771 12.7079 14.7162 12.7079C14.8728 12.7079 15.0827 12.7553 15.2745 12.8534L15.3097 13.3543H15.1959C15.1471 13.0442 14.975 12.869 14.6609 12.869C14.4661 12.869 14.2793 12.9813 14.2793 13.1902C14.2793 13.7665 15.4184 13.5893 15.4184 14.36C15.4184 14.6841 15.1577 15.0284 14.5738 15.0284C14.3765 15.0284 14.1464 14.9575 13.9733 14.8598L13.9199 14.2965L14.0085 14.2724Z" fill="#2F292A"/>
<path d="M19.8522 12.4142H19.7289C19.6332 11.8404 19.226 11.6104 18.6763 11.6104C18.1131 11.6104 17.2941 11.9869 17.2941 13.1672C17.2941 14.1594 17.9993 14.8701 18.7579 14.8701C19.2411 14.8701 19.6448 14.5384 19.7435 14.0215L19.8547 14.0501L19.7435 14.7664C19.5361 14.8953 18.9814 15.0282 18.6597 15.0282C17.5085 15.0282 16.7832 14.2862 16.7832 13.1813C16.7832 12.1756 17.6802 11.4533 18.6441 11.4533C19.0392 11.4533 19.4233 11.5802 19.7998 11.7125L19.8522 12.4142Z" fill="#2F292A"/>
<path d="M20.0273 14.8276H20.122C20.2584 14.8276 20.3575 14.8276 20.3575 14.6655V11.9308C20.3575 11.6101 20.281 11.6006 20.0943 11.5442V11.4662C20.2936 11.4037 20.499 11.3167 20.6012 11.2563C20.653 11.2276 20.6948 11.2024 20.7089 11.2024C20.7406 11.2024 20.7486 11.2321 20.7486 11.2724V14.6655C20.7486 14.8276 20.8564 14.8276 20.9948 14.8276H21.0753V14.9554C20.9117 14.9554 20.7406 14.9429 20.5624 14.9429C20.3852 14.9429 20.2075 14.9514 20.0273 14.9554V14.8276Z" fill="#2F292A"/>
<path d="M23.1802 14.6839C23.1802 14.771 23.2365 14.777 23.3181 14.777C23.3775 14.777 23.451 14.771 23.5154 14.771V14.8747C23.302 14.8953 22.9003 14.9995 22.8072 15.0282L22.784 15.0146V14.6165C22.4891 14.8551 22.2635 15.0282 21.9127 15.0282C21.6484 15.0282 21.3721 14.8551 21.3721 14.4443V13.1859C21.3721 13.0581 21.354 12.9363 21.0781 12.9116V12.82C21.2548 12.8114 21.6484 12.7842 21.7104 12.7842C21.7667 12.7842 21.7667 12.82 21.7667 12.9267V14.1931C21.7667 14.3391 21.7667 14.7619 22.1926 14.7619C22.3612 14.7619 22.5817 14.6366 22.7865 14.4634V13.1411C22.7865 13.0445 22.5505 12.9891 22.3763 12.9418V12.8532C22.8178 12.823 23.0916 12.7842 23.1419 12.7842C23.1802 12.7842 23.1802 12.82 23.1802 12.8713V14.6839Z" fill="#2F292A"/>
<path d="M24.1593 13.0631C24.3521 12.898 24.6198 12.7083 24.8886 12.7083C25.4605 12.7083 25.8032 13.2056 25.8032 13.7412C25.8032 14.3855 25.3311 15.0282 24.6284 15.0282C24.2655 15.0282 24.0742 14.9105 23.9469 14.8551L23.7994 14.9684L23.6957 14.9165C23.742 14.6261 23.7631 14.3392 23.7631 14.0412V11.9306C23.7631 11.6104 23.6921 11.6009 23.5039 11.5445V11.466C23.7022 11.4036 23.9086 11.3165 24.0113 11.2566C24.0646 11.2279 24.1029 11.2022 24.1185 11.2022C24.1487 11.2022 24.1593 11.2324 24.1593 11.2727V13.0631ZM24.1593 14.399C24.1593 14.5878 24.3344 14.9014 24.6636 14.9014C25.1902 14.9014 25.4121 14.3855 25.4121 13.9475C25.4121 13.4165 25.0059 12.9766 24.6234 12.9766C24.4432 12.9766 24.2912 13.0938 24.1593 13.2056V14.399Z" fill="#2F292A"/>
<path d="M2.97266 17.8101H3.0094C3.10705 17.8101 3.20822 17.7965 3.20822 17.6571V16.2562C3.20822 16.1178 3.10705 16.1062 3.0094 16.1062H2.97266V16.0247C3.07684 16.0247 3.23692 16.0337 3.36879 16.0337C3.50268 16.0337 3.66274 16.0247 3.78858 16.0247V16.1062H3.75034C3.65318 16.1062 3.55251 16.1178 3.55251 16.2562V17.6571C3.55251 17.7965 3.65318 17.8101 3.75034 17.8101H3.78858V17.8896C3.66124 17.8896 3.49915 17.8785 3.36628 17.8785C3.23338 17.8785 3.07684 17.8896 2.97266 17.8896V17.8101Z" fill="#2F292A"/>
<path d="M3.78947 17.9015C3.65858 17.9015 3.50002 17.8909 3.36714 17.8909C3.23426 17.8909 3.07921 17.9015 2.97352 17.9015H2.96094V17.8899V17.8099V17.7988H2.97352H3.01026C3.10791 17.7963 3.19701 17.7877 3.19701 17.6569V16.256C3.19701 16.1256 3.10791 16.1181 3.01026 16.1171H2.96094V16.1065V16.0144H2.97352C3.07921 16.0144 3.23778 16.0235 3.36966 16.0235C3.50354 16.0235 3.66211 16.0144 3.78947 16.0144H3.80204V16.0245V16.1171H3.78947H3.7512C3.65405 16.1181 3.56546 16.1256 3.56446 16.256V17.6569C3.56546 17.7877 3.65405 17.7963 3.7512 17.7988H3.80204V17.8099V17.9015H3.78947ZM3.77689 17.8783V17.8205H3.7512C3.65556 17.8205 3.54281 17.8033 3.5413 17.6569V16.256C3.54281 16.109 3.65556 16.0924 3.7512 16.0924H3.77689V16.0376C3.65405 16.0376 3.49903 16.0476 3.36966 16.0476C3.24281 16.0476 3.08828 16.0376 2.98711 16.0376V16.0924H3.01026C3.10489 16.0924 3.22066 16.109 3.22066 16.256V17.6569C3.22066 17.8033 3.10489 17.8205 3.01026 17.8205H2.98711V17.8783C3.08828 17.8783 3.23928 17.8668 3.36714 17.8668C3.49699 17.8668 3.65153 17.8783 3.77689 17.8783Z" fill="#2F292A"/>
<path d="M5.6232 17.3645L5.62771 17.3585V16.3578C5.62771 16.1389 5.47772 16.1066 5.39718 16.1066H5.33879V16.0246C5.46564 16.0246 5.58795 16.0342 5.71228 16.0342C5.82252 16.0342 5.93275 16.0246 6.04149 16.0246V16.1066H6.00071C5.88947 16.1066 5.76262 16.1258 5.76262 16.4439V17.6595C5.76262 17.7526 5.76565 17.8458 5.78075 17.9298H5.67705L4.30237 16.3956V17.4969C4.30237 17.73 4.34718 17.81 4.55153 17.81H4.59835V17.89C4.48258 17.89 4.36781 17.8785 4.25304 17.8785C4.13273 17.8785 4.00992 17.89 3.89062 17.89V17.81H3.92788C4.1121 17.81 4.16595 17.6847 4.16595 17.4702V16.3452C4.16595 16.1962 4.04415 16.1066 3.92385 16.1066H3.89062V16.0246C3.98979 16.0246 4.09599 16.0342 4.19465 16.0342C4.2762 16.0342 4.35574 16.0246 4.43628 16.0246L5.6232 17.3645Z" fill="#2F292A"/>
<path d="M5.78017 17.9415L5.66841 17.937L4.31236 16.4254V17.4966C4.31488 17.7286 4.35162 17.7966 4.55095 17.7991H4.60632V17.8101V17.9013H4.59777C4.482 17.9013 4.36623 17.8907 4.25246 17.8907C4.13215 17.8907 4.00934 17.9013 3.89004 17.9013H3.87695V17.8897V17.7991H3.89004H3.9273C4.10447 17.7966 4.15481 17.6848 4.15633 17.4704V16.3454C4.15633 16.2024 4.04004 16.1168 3.92327 16.1168H3.87695V16.1063V16.0142H3.89004C3.99223 16.0142 4.09642 16.0237 4.19407 16.0237C4.27562 16.0237 4.35162 16.0142 4.44425 16.0152L5.61607 17.338V16.3574C5.61456 16.143 5.47361 16.1178 5.39661 16.1168H5.32563V16.1063V16.0142H5.33823C5.46505 16.0142 5.58739 16.0237 5.7117 16.0237C5.81993 16.0237 5.93017 16.0142 6.04091 16.0142H6.05349V16.0247V16.1168H6.04091H6.00012C5.8904 16.1204 5.77865 16.1294 5.7726 16.444V17.6591C5.7726 17.7528 5.77765 17.8459 5.7877 17.9254L5.79124 17.9415H5.78017ZM5.67648 17.9184H5.76507C5.75398 17.8358 5.74997 17.7503 5.74997 17.6591V16.444C5.74997 16.1249 5.88637 16.0927 6.00012 16.0927H6.02781V16.0378C5.92413 16.0378 5.81742 16.0479 5.7117 16.0479C5.59038 16.0479 5.47109 16.0378 5.3503 16.0378V16.0927H5.39661C5.47815 16.0927 5.63923 16.1294 5.63923 16.3574L5.63721 17.3682L5.63268 17.3722L5.6226 17.3783L4.4357 16.0378C4.35616 16.0378 4.27562 16.0479 4.19407 16.0479C4.09843 16.0479 3.99827 16.0378 3.90162 16.0378V16.0927H3.92327C4.04861 16.0927 4.17797 16.1908 4.17797 16.3454V17.4704C4.17797 17.6848 4.11807 17.8207 3.9273 17.8207H3.90162V17.8786C4.0174 17.8786 4.13669 17.867 4.25246 17.867C4.36471 17.867 4.47647 17.8786 4.5867 17.8786V17.8207H4.55095C4.34307 17.8207 4.2892 17.7286 4.2892 17.4966V16.367L5.67648 17.9184ZM5.6226 17.3647L5.63268 17.3556L5.6226 17.3647ZM5.61607 17.3586V17.3561L5.61456 17.3556L5.61607 17.3586Z" fill="#2F292A"/>
<path d="M6.44004 16.1581C6.23919 16.1581 6.23164 16.2054 6.19136 16.4012H6.11133C6.12241 16.3262 6.13499 16.2512 6.14304 16.1732C6.15613 16.0982 6.16015 16.0247 6.16015 15.9472H6.22509C6.24573 16.0267 6.31065 16.0247 6.38365 16.0247H7.76185C7.83533 16.0247 7.90329 16.0232 7.90581 15.9432L7.97023 15.9507C7.95967 16.0247 7.95111 16.0977 7.94105 16.1682C7.93652 16.2412 7.93652 16.3126 7.93652 16.3861L7.85698 16.4138C7.85043 16.3162 7.83887 16.1581 7.65966 16.1581H7.22224V17.5791C7.22224 17.785 7.31285 17.8101 7.4407 17.8101H7.49456V17.8897C7.38835 17.8897 7.20111 17.8781 7.05765 17.8781C6.89708 17.8781 6.71034 17.8897 6.60613 17.8897V17.8101H6.65596C6.80598 17.8101 6.87744 17.7965 6.87744 17.5866V16.1581H6.44004Z" fill="#2F292A"/>
<path d="M7.49593 17.9012C7.38971 17.9012 7.20145 17.8907 7.05901 17.8907C6.89844 17.8907 6.7137 17.9012 6.60749 17.9012H6.59541V17.8897V17.7991H6.60749H6.65732C6.80734 17.7965 6.86522 17.794 6.86974 17.5866V16.1697H6.4414V16.1581V16.1455H6.89138V17.5866C6.89138 17.7991 6.80582 17.8207 6.65732 17.8207H6.61857V17.8781C6.72427 17.8781 6.90296 17.867 7.05901 17.867C7.19893 17.867 7.37712 17.8781 7.48233 17.8781V17.8207H7.44206C7.31421 17.8207 7.21203 17.788 7.21203 17.5791V16.1455H7.66102C7.84122 16.1455 7.86286 16.299 7.86893 16.3977L7.92681 16.3771C7.92681 16.3081 7.92681 16.2376 7.93133 16.1677C7.93939 16.0982 7.95046 16.0318 7.96103 15.9623L7.91824 15.9548C7.90567 16.0338 7.83117 16.0373 7.76321 16.0373H6.38502H6.3704C6.308 16.0373 6.24055 16.0338 6.21588 15.9588H6.1731C6.1731 16.0328 6.16655 16.1063 6.15749 16.1742C6.15045 16.2507 6.13635 16.3187 6.12377 16.3907H6.18366C6.21992 16.2044 6.24205 16.143 6.4414 16.1455V16.1581V16.1697C6.24507 16.1732 6.24709 16.2059 6.20329 16.4053L6.20078 16.4118H6.19272H6.09961V16.3977C6.1117 16.3262 6.12377 16.2507 6.13535 16.1722C6.1444 16.0982 6.15045 16.0247 6.15045 15.9472V15.9346H6.16152H6.234L6.23754 15.9452C6.25363 16.0111 6.30497 16.0131 6.3704 16.0141H6.38502H7.76321C7.84023 16.0131 7.89207 16.0111 7.89661 15.9432L7.89862 15.9291L7.90817 15.9311L7.9857 15.9442L7.98469 15.9548C7.97312 16.0272 7.96103 16.0982 7.955 16.1697C7.95046 16.2412 7.95046 16.3126 7.95046 16.3866V16.3922L7.94241 16.3957L7.84728 16.4324L7.84525 16.4138C7.84122 16.3162 7.82914 16.1697 7.66102 16.1697H7.23367V17.5791C7.23469 17.7804 7.31622 17.7965 7.44206 17.7991H7.50852V17.8101V17.9012H7.49593Z" fill="#2F292A"/>
<path d="M8.05664 17.8101H8.09539C8.19153 17.8101 8.2922 17.7965 8.2922 17.6571V16.2562C8.2922 16.1178 8.19153 16.1062 8.09539 16.1062H8.05664V16.0247C8.22072 16.0247 8.49756 16.0337 8.72106 16.0337C8.94608 16.0337 9.22442 16.0247 9.40563 16.0247C9.4021 16.1399 9.40412 16.3161 9.41167 16.4334L9.33164 16.4555C9.31856 16.2814 9.28735 16.1409 9.00647 16.1409H8.63649V16.8401H8.95361C9.11318 16.8401 9.14641 16.7515 9.16151 16.6065H9.24305C9.24054 16.7112 9.2345 16.8159 9.2345 16.9186C9.2345 17.0233 9.24054 17.1225 9.24305 17.2252L9.16151 17.2403C9.14641 17.0807 9.13886 16.975 8.95564 16.975H8.63649V17.5982C8.63649 17.7708 8.79154 17.7708 8.96118 17.7708C9.2808 17.7708 9.42174 17.7512 9.50279 17.4477L9.57729 17.4658C9.54355 17.6072 9.50933 17.7477 9.48618 17.8896C9.31504 17.8896 9.00899 17.8785 8.76687 17.8785C8.52827 17.8785 8.21166 17.8896 8.05664 17.8896V17.8101Z" fill="#2F292A"/>
<path d="M9.48447 17.9015C9.31434 17.9015 9.00628 17.8899 8.76618 17.8899C8.52758 17.8899 8.21097 17.9015 8.05594 17.9015H8.04688V17.8899V17.8099V17.7988H8.05594H8.09469C8.19084 17.7963 8.27742 17.7877 8.28143 17.6569V16.256C8.27742 16.1256 8.19084 16.1181 8.09469 16.1171H8.04688V16.1065V16.0144H8.05594C8.22003 16.0144 8.49687 16.0235 8.72037 16.0235C8.94537 16.0235 9.22373 16.0144 9.40494 16.0144H9.41652V16.0245C9.41652 16.0652 9.41351 16.1121 9.41351 16.1639C9.41351 16.255 9.41652 16.3577 9.42105 16.4337L9.42256 16.4428L9.41351 16.4443L9.31886 16.4704V16.4553C9.30325 16.2817 9.28011 16.1574 9.00577 16.1538H8.64537V16.8298H8.95292C9.10594 16.8298 9.13364 16.7503 9.15024 16.6064L9.15225 16.5963H9.16082H9.25494V16.6064C9.2484 16.7116 9.24639 16.8158 9.24639 16.9184C9.24639 17.0206 9.2484 17.1223 9.25494 17.225V17.233L9.24537 17.2345L9.15225 17.2562L9.15024 17.2426C9.13364 17.0775 9.13061 16.9889 8.95494 16.9879H8.64537V17.5985C8.64537 17.7606 8.78631 17.7595 8.96047 17.7606C9.28011 17.7595 9.41098 17.7434 9.49152 17.4404L9.49303 17.4314L9.50611 17.4349L9.58766 17.4565V17.4666C9.55445 17.6085 9.52222 17.7515 9.49606 17.8919L9.49453 17.9015H9.48447ZM9.47442 17.8783C9.49907 17.7434 9.52876 17.6075 9.56249 17.4716L9.50864 17.4611C9.42909 17.7595 9.27356 17.7847 8.96047 17.7837C8.79085 17.7837 8.62273 17.7837 8.62121 17.5985V16.9642H8.95494C9.14118 16.9612 9.16082 17.0755 9.17138 17.229L9.23179 17.2149C9.22524 17.1168 9.22274 17.0191 9.22274 16.9184C9.22274 16.8198 9.22524 16.7191 9.23179 16.6189H9.17138C9.15981 16.7584 9.1135 16.854 8.95292 16.8525H8.62121V16.1317H9.00577C9.28363 16.1272 9.33095 16.2746 9.34051 16.4397L9.39889 16.4246C9.39488 16.3491 9.39034 16.2515 9.39034 16.1639C9.39034 16.1181 9.39235 16.0743 9.39235 16.0376C9.21317 16.0376 8.94084 16.0476 8.72037 16.0476C8.50141 16.0476 8.23362 16.0376 8.06952 16.0376V16.0924H8.09469C8.18883 16.0924 8.30259 16.109 8.3051 16.256V17.6569C8.30259 17.8033 8.18883 17.8205 8.09469 17.8205H8.06952V17.8783C8.22304 17.8783 8.53263 17.8668 8.76618 17.8668C9.00225 17.8668 9.30325 17.8783 9.47442 17.8783Z" fill="#2F292A"/>
<path d="M9.9383 16.3081C9.9383 16.1117 9.82909 16.1062 9.74652 16.1062H9.69922V16.0247C9.78328 16.0247 9.9509 16.0337 10.112 16.0337C10.2741 16.0337 10.4004 16.0247 10.5429 16.0247C10.8801 16.0247 11.1796 16.1168 11.1796 16.4968C11.1796 16.7364 11.019 16.8814 10.8071 16.9644L11.2657 17.65C11.3381 17.7618 11.3955 17.7965 11.5224 17.8101V17.8896C11.4368 17.8896 11.3492 17.8785 11.2621 17.8785C11.1796 17.8785 11.0915 17.8896 11.011 17.8896C10.8051 17.6213 10.6289 17.3309 10.4538 17.0233H10.2766V17.5946C10.2766 17.801 10.3762 17.8101 10.497 17.8101H10.5449V17.8896C10.3928 17.8896 10.2398 17.8785 10.0853 17.8785C9.95794 17.8785 9.83411 17.8896 9.69922 17.8896V17.8101H9.74652C9.8482 17.8101 9.9383 17.7643 9.9383 17.6661V16.3081ZM10.2766 16.9277H10.41C10.6772 16.9277 10.8217 16.8265 10.8217 16.5119C10.8217 16.2743 10.6682 16.1213 10.4306 16.1213C10.3501 16.1213 10.3153 16.1294 10.2766 16.1314V16.9277Z" fill="#2F292A"/>
<path d="M11.5232 17.9014C11.4351 17.9014 11.35 17.8908 11.263 17.8908C11.1804 17.8908 11.0963 17.9014 11.0022 17.8968C10.7973 17.627 10.6212 17.3411 10.4475 17.0371H10.291V17.5948C10.2955 17.7962 10.375 17.7962 10.4973 17.7992H10.5582V17.8103V17.9014H10.5452C10.3931 17.9014 10.2401 17.8908 10.0856 17.8908C9.95825 17.8908 9.83442 17.9014 9.70003 17.9014H9.68945V17.8898V17.7992H9.70003H9.74733C9.84449 17.7977 9.92351 17.7549 9.92351 17.6663V16.3082C9.92351 16.118 9.8299 16.12 9.74733 16.117H9.68945V16.1064V16.0143H9.70003C9.78661 16.0143 9.9512 16.0233 10.1123 16.0233C10.2744 16.0233 10.3997 16.0143 10.5432 16.0143C10.8809 16.0153 11.1915 16.1074 11.1915 16.4935C11.1915 16.7366 11.0334 16.8866 10.8266 16.9702L11.275 17.6431C11.35 17.7529 11.3958 17.7801 11.5252 17.7992H11.5348V17.8103V17.9014H11.5232ZM10.2769 17.0119H10.4621L10.4661 17.019C10.6378 17.324 10.814 17.6135 11.0118 17.8782C11.0923 17.8782 11.1804 17.8666 11.263 17.8666C11.3465 17.8666 11.428 17.8772 11.5126 17.8782V17.8183C11.3873 17.8032 11.3284 17.7665 11.2569 17.6572L10.7913 16.9601L10.8039 16.9546C11.0128 16.8715 11.1678 16.7286 11.1678 16.4935C11.1678 16.125 10.8804 16.0384 10.5432 16.0374C10.4032 16.0374 10.2744 16.0475 10.1123 16.0475C9.95573 16.0475 9.79968 16.0374 9.7111 16.0374V16.0928H9.74733C9.8299 16.0928 9.94919 16.1074 9.94919 16.3082V17.6663C9.94919 17.771 9.84901 17.8203 9.74733 17.8203H9.7111V17.8782C9.84097 17.8782 9.96026 17.8666 10.0856 17.8666C10.2356 17.8666 10.3871 17.8782 10.5341 17.8782V17.8203H10.4973C10.377 17.8203 10.2658 17.8067 10.2658 17.5948V17.0119H10.2769ZM10.2769 16.9405H10.2658V16.1215H10.2769C10.3136 16.118 10.3494 16.1089 10.4314 16.1089C10.675 16.1089 10.8331 16.2665 10.8331 16.5121C10.8331 16.8297 10.6796 16.9405 10.4103 16.9405H10.2769ZM10.4103 16.9163C10.675 16.9128 10.8079 16.8232 10.8094 16.5121C10.8094 16.279 10.6624 16.1341 10.4314 16.1341C10.3599 16.1341 10.3262 16.1396 10.291 16.1406V16.9163H10.4103Z" fill="#2F292A"/>
<path d="M13.3396 17.3645L13.3431 17.3585V16.3578C13.3431 16.1389 13.1921 16.1066 13.1116 16.1066H13.0552V16.0246C13.1795 16.0246 13.3029 16.0342 13.4287 16.0342C13.5389 16.0342 13.6477 16.0246 13.7574 16.0246V16.1066H13.7161C13.6034 16.1066 13.479 16.1258 13.479 16.4439V17.6595C13.479 17.7526 13.4805 17.8458 13.4956 17.9298H13.3935L12.0168 16.3956V17.4969C12.0168 17.73 12.0621 17.81 12.2679 17.81H12.3137V17.89C12.2 17.89 12.0852 17.8785 11.9684 17.8785C11.8502 17.8785 11.7268 17.89 11.6035 17.89V17.81H11.6423C11.826 17.81 11.8839 17.6847 11.8839 17.4702V16.3452C11.8839 16.1962 11.7601 16.1066 11.6413 16.1066H11.6035V16.0246C11.7082 16.0246 11.8109 16.0342 11.9131 16.0342C11.9906 16.0342 12.0706 16.0246 12.1502 16.0246L13.3396 17.3645Z" fill="#2F292A"/>
<path d="M13.4949 17.9415L13.3832 17.937L12.0271 16.4254V17.4966C12.0307 17.7296 12.0664 17.7966 12.2672 17.7991H12.3251V17.8101V17.9013H12.3115C12.1988 17.9013 12.0805 17.8897 11.9677 17.8897C11.8495 17.8897 11.7261 17.9013 11.6028 17.9013H11.5938V17.8897V17.7991H11.6028H11.6416C11.8167 17.7976 11.8686 17.6848 11.8706 17.4684V16.3454C11.8706 16.2009 11.7543 16.1168 11.6401 16.1168H11.5938V16.1063V16.0142H11.6028C11.707 16.0142 11.8102 16.0237 11.9124 16.0237C11.9899 16.0237 12.0664 16.0142 12.157 16.0152L13.3329 17.338V16.3574C13.3329 16.143 13.1884 16.1178 13.1104 16.1168H13.0409V16.1063V16.0142H13.054C13.1793 16.0142 13.3022 16.0237 13.428 16.0237C13.5347 16.0237 13.6449 16.0142 13.7567 16.0142H13.7678V16.0247V16.1168H13.7567H13.7154C13.6052 16.1204 13.4909 16.1294 13.4909 16.444V17.6591C13.4909 17.7528 13.4909 17.8459 13.5055 17.9254L13.5075 17.9415H13.4949ZM13.3928 17.9184H13.4798C13.4673 17.8358 13.4652 17.7503 13.4652 17.6591V16.444C13.4652 16.1249 13.6011 16.0937 13.7154 16.0927H13.7441V16.0378C13.6384 16.0378 13.5347 16.0479 13.428 16.0479C13.3032 16.0479 13.1854 16.0378 13.0651 16.0378V16.0927H13.1104C13.1934 16.0937 13.356 16.1294 13.356 16.3574L13.3525 17.3682L13.3444 17.3722L13.3389 17.3808L12.1489 16.0378C12.0719 16.0378 11.9939 16.0479 11.9124 16.0479C11.8122 16.0479 11.7115 16.0378 11.6139 16.0378V16.0927H11.6401C11.7654 16.0937 11.8943 16.1883 11.8943 16.3454V17.4684C11.8943 17.6848 11.8328 17.8207 11.6416 17.8207H11.6139V17.8786C11.7302 17.8786 11.851 17.867 11.9677 17.867C12.0805 17.867 12.1922 17.8786 12.2995 17.8786V17.8207H12.2672C12.0568 17.8207 12.0055 17.7296 12.004 17.4966V16.367L13.3928 17.9184ZM13.3389 17.3647L13.348 17.3556L13.3389 17.3647ZM13.3329 17.3586V17.3561L13.3293 17.3556L13.3329 17.3586Z" fill="#2F292A"/>
<path d="M14.1856 17.5083C14.1584 17.5984 14.1262 17.6684 14.1262 17.7162C14.1262 17.7962 14.2395 17.8103 14.328 17.8103H14.3567V17.8898C14.25 17.8828 14.1413 17.8783 14.0331 17.8783C13.9374 17.8783 13.8403 17.8828 13.7441 17.8898V17.8103H13.7603C13.866 17.8103 13.953 17.7479 13.9943 17.6362L14.4196 16.407C14.4554 16.3113 14.5017 16.1769 14.5208 16.0788C14.6049 16.0501 14.7121 15.9957 14.7629 15.9635C14.77 15.9625 14.7765 15.9554 14.7841 15.9554C14.7931 15.9554 14.7982 15.9554 14.8027 15.9645C14.8103 15.9861 14.8193 16.0108 14.8269 16.0325L15.3197 17.4303C15.3519 17.5244 15.3846 17.6221 15.4178 17.7031C15.448 17.7781 15.5059 17.8103 15.5935 17.8103H15.6091V17.8898C15.4893 17.8828 15.368 17.8783 15.2421 17.8783C15.1098 17.8783 14.9769 17.8828 14.839 17.8898V17.8103H14.8697C14.9296 17.8103 15.0347 17.7987 15.0347 17.7333C15.0347 17.6986 15.0121 17.6256 14.9814 17.5405L14.8777 17.2294H14.2732L14.1856 17.5083ZM14.5747 16.3254H14.5712L14.3235 17.081H14.8239L14.5747 16.3254Z" fill="#2F292A"/>
<path d="M15.6094 17.9012C15.4896 17.8967 15.3683 17.8896 15.2424 17.8896C15.1101 17.8896 14.9772 17.8967 14.8408 17.9012L14.8307 17.9037V17.8896V17.7975H14.8393H14.87C14.9298 17.7975 15.025 17.7839 15.025 17.7331C15.025 17.7009 14.9998 17.6269 14.9696 17.5428L14.8679 17.2423H14.279L14.1944 17.5106C14.1688 17.6027 14.1381 17.6732 14.1381 17.716C14.1381 17.7804 14.2367 17.7975 14.3283 17.7975H14.3666V17.8101V17.9037L14.356 17.9012C14.2483 17.8967 14.1401 17.8896 14.0334 17.8896C13.9372 17.8896 13.8406 17.8967 13.7444 17.9012L13.7344 17.9037V17.8896V17.7975H13.7444H13.7605C13.8592 17.7975 13.9433 17.7391 13.9825 17.6309L14.4109 16.4057C14.4446 16.3081 14.4934 16.1732 14.5166 16.0659C14.5991 16.0383 14.7074 15.9854 14.7587 15.9512C14.7678 15.9487 14.7743 15.9471 14.7844 15.9471C14.7924 15.9471 14.8055 15.9471 14.8136 15.9622C14.8241 15.9834 14.8307 16.0086 14.8393 16.0292L15.331 17.4255C15.3617 17.5191 15.3919 17.6178 15.4267 17.6988C15.4609 17.7703 15.5082 17.7975 15.5938 17.7975H15.6215V17.8101V17.9037L15.6094 17.9012ZM14.8498 17.8785C14.9847 17.8725 15.1146 17.867 15.2424 17.867C15.3637 17.867 15.4825 17.8725 15.5968 17.8785V17.8206H15.5938C15.5022 17.8206 15.4377 17.7849 15.4081 17.7064C15.3723 17.6259 15.3401 17.5282 15.3084 17.4336L14.8161 16.0378C14.807 16.0151 14.802 15.9914 14.7934 15.9718L14.7924 15.9693H14.7889H14.7844C14.7783 15.9693 14.7768 15.9693 14.7698 15.9718C14.7174 16.0065 14.6112 16.0579 14.5317 16.08C14.5146 16.1812 14.4673 16.3141 14.4325 16.4117L14.0017 17.6394C13.9639 17.7552 13.8708 17.8206 13.7605 17.8206H13.757V17.8785C13.8476 17.8725 13.9408 17.867 14.0334 17.867C14.1371 17.867 14.2433 17.8725 14.3454 17.8785V17.8206H14.3283C14.2397 17.8206 14.1184 17.8116 14.1154 17.716C14.1154 17.6636 14.1481 17.5946 14.1748 17.506L14.1859 17.5081L14.1748 17.506L14.2639 17.2191H14.8871L14.9928 17.5362C15.0235 17.6223 15.0476 17.6913 15.0476 17.7331C15.0431 17.8136 14.9298 17.8181 14.87 17.8206H14.8498V17.8785ZM14.3047 17.0898L14.5624 16.3126H14.5715H14.575V16.3252L14.5735 16.3262L14.575 16.3252V16.3126H14.5835L14.8393 17.0898H14.3047ZM14.3364 17.0686H14.8055L14.5735 16.3508L14.3364 17.0686ZM14.5644 16.3277L14.5715 16.3262L14.5644 16.3277Z" fill="#2F292A"/>
<path d="M15.7257 16.1581C15.5269 16.1581 15.5158 16.2054 15.4775 16.4012H15.3965C15.407 16.3262 15.4196 16.2512 15.4292 16.1732C15.4398 16.0982 15.4458 16.0247 15.4458 15.9472H15.5087C15.5314 16.0267 15.5973 16.0247 15.6698 16.0247H17.0485C17.1205 16.0247 17.1895 16.0232 17.192 15.9432L17.2584 15.9507C17.2473 16.0247 17.2368 16.0977 17.2272 16.1682C17.2217 16.2412 17.2217 16.3126 17.2217 16.3861L17.1436 16.4138C17.1391 16.3162 17.123 16.1581 16.9428 16.1581H16.5069V17.5791C16.5069 17.785 16.5985 17.8101 16.7284 17.8101H16.7797V17.8897C16.6745 17.8897 16.4878 17.8781 16.3443 17.8781C16.1832 17.8781 15.997 17.8897 15.8918 17.8897V17.8101H15.9421C16.0881 17.8101 16.1636 17.7965 16.1636 17.5866V16.1581H15.7257Z" fill="#2F292A"/>
<path d="M16.7811 17.9012C16.6749 17.9012 16.4891 17.8907 16.3457 17.8907C16.1851 17.8907 15.9989 17.9012 15.8932 17.9012H15.8821V17.8897V17.7991H15.8932H15.9435C16.09 17.7965 16.1489 17.794 16.1539 17.5866V16.1697H15.7271V16.1581V16.1455H16.177V17.5866C16.177 17.7991 16.09 17.8207 15.9435 17.8207H15.9047V17.8781C16.0105 17.8781 16.1896 17.867 16.3457 17.867C16.4846 17.867 16.6628 17.8781 16.768 17.8781V17.8207H16.7297C16.5999 17.8207 16.4957 17.792 16.4957 17.5791V16.1455H16.9442C17.1249 16.1455 17.1475 16.299 17.1521 16.3977L17.21 16.3771C17.21 16.3081 17.212 16.2376 17.2185 16.1677C17.2245 16.0982 17.2351 16.0318 17.2437 15.9623L17.2049 15.9548C17.1938 16.0338 17.1173 16.0373 17.0499 16.0373H15.6717H15.6636H15.6591C15.5942 16.0373 15.5252 16.0338 15.5021 15.9588H15.4583C15.4583 16.0328 15.4517 16.1063 15.4411 16.1742C15.4356 16.2507 15.421 16.3187 15.4104 16.3907H15.4708C15.5056 16.2044 15.5287 16.143 15.7271 16.1455V16.1581V16.1697C15.5297 16.1722 15.5337 16.2059 15.49 16.4053L15.488 16.4118H15.4794H15.3848L15.3858 16.3977C15.3979 16.3262 15.4104 16.2507 15.4195 16.1722C15.4311 16.0982 15.4356 16.0247 15.4356 15.9472V15.9346H15.4472H15.5192L15.5227 15.9452C15.5403 16.0111 15.5896 16.0131 15.6591 16.0141H15.6717H17.0499C17.1234 16.0131 17.1787 16.0111 17.1823 15.9432V15.9291L17.1954 15.9311L17.2718 15.9442L17.2704 15.9548C17.2598 16.0272 17.2487 16.0982 17.2386 16.1697C17.2351 16.2412 17.2351 16.3126 17.2351 16.3866V16.3922L17.2266 16.3957L17.1319 16.4324L17.1304 16.4138C17.1249 16.3162 17.1143 16.1697 16.9442 16.1697H16.5198V17.5791C16.5213 17.7804 16.6029 17.7965 16.7297 17.7991H16.7912V17.8101V17.9012H16.7811Z" fill="#2F292A"/>
<path d="M17.3555 17.8101H17.3942C17.4899 17.8101 17.592 17.7965 17.592 17.6571V16.2562C17.592 16.1178 17.4899 16.1062 17.3942 16.1062H17.3555V16.0247C17.4612 16.0247 17.6202 16.0337 17.7511 16.0337C17.8875 16.0337 18.0466 16.0247 18.1719 16.0247V16.1062H18.1347C18.039 16.1062 17.9373 16.1178 17.9373 16.2562V17.6571C17.9373 17.7965 18.039 17.8101 18.1347 17.8101H18.1719V17.8896C18.0426 17.8896 17.8825 17.8785 17.7496 17.8785C17.6197 17.8785 17.4612 17.8896 17.3555 17.8896V17.8101Z" fill="#2F292A"/>
<path d="M18.1723 17.9015C18.0424 17.9015 17.8828 17.8899 17.75 17.8899C17.6201 17.8899 17.461 17.9015 17.3558 17.9015H17.3438V17.8899V17.8099V17.7988H17.3558H17.3946C17.4902 17.7963 17.5793 17.7877 17.5793 17.6569V16.256C17.5793 16.1256 17.4902 16.1181 17.3946 16.1171H17.3438V16.1065V16.0144H17.3558C17.461 16.0144 17.6226 16.0235 17.751 16.0235C17.8854 16.0235 18.0469 16.0144 18.1723 16.0144H18.1834V16.0245V16.1171H18.1723H18.1345C18.0389 16.1181 17.9483 16.1256 17.9483 16.256V17.6569C17.9483 17.7877 18.0389 17.7963 18.1345 17.7988H18.1834V17.8099V17.9015H18.1723ZM18.1597 17.8783V17.8205H18.1345C18.0404 17.8205 17.9256 17.8033 17.9256 17.6569V16.256C17.9256 16.109 18.0404 16.0924 18.1345 16.0924H18.1597V16.0376C18.0389 16.0376 17.8808 16.0476 17.751 16.0476C17.6256 16.0476 17.4716 16.0376 17.3689 16.0376V16.0924H17.3946C17.4892 16.0924 17.6035 16.109 17.6035 16.256V17.6569C17.6035 17.8033 17.4892 17.8205 17.3946 17.8205H17.3689V17.8783C17.4716 17.8768 17.6226 17.8668 17.75 17.8668C17.8798 17.8668 18.0343 17.8783 18.1597 17.8783Z" fill="#2F292A"/>
<path d="M19.2395 15.9853C19.8088 15.9853 20.2614 16.3392 20.2614 16.9079C20.2614 17.5226 19.8224 17.9298 19.2526 17.9298C18.6854 17.9298 18.252 17.5457 18.252 16.9704C18.252 16.4142 18.6818 15.9853 19.2395 15.9853ZM19.2788 17.8115C19.7983 17.8115 19.8889 17.3554 19.8889 16.9643C19.8889 16.5762 19.677 16.1021 19.234 16.1021C18.7664 16.1021 18.6255 16.5173 18.6255 16.8772C18.6255 17.3554 18.8459 17.8115 19.2788 17.8115Z" fill="#2F292A"/>
<path d="M18.2383 16.9704C18.2408 16.4071 18.6757 15.9763 19.2379 15.9717V15.9853V15.9959C18.6883 15.9959 18.2614 16.4197 18.2614 16.9704C18.264 17.5382 18.6883 17.9182 19.251 17.9182C19.8128 17.9182 20.2477 17.514 20.2497 16.907C20.2477 16.3452 19.7992 15.9959 19.2379 15.9959V15.9853V15.9717C19.8098 15.9717 20.2709 16.3301 20.2709 16.907C20.2709 17.5281 19.8239 17.9394 19.251 17.9419C18.6792 17.9394 18.2408 17.5508 18.2383 16.9704ZM18.6128 16.8773C18.6128 16.5174 18.7552 16.0905 19.2324 16.0905C19.6844 16.0905 19.8953 16.5743 19.8989 16.9644C19.8953 17.3555 19.8032 17.8231 19.2772 17.8231V17.8115V17.8015C19.7841 17.7989 19.8727 17.3555 19.8727 16.9644C19.8727 16.5788 19.6638 16.1132 19.2324 16.1132C18.7724 16.1132 18.6375 16.5214 18.6359 16.8773C18.6359 17.3545 18.8534 17.7989 19.2772 17.8015V17.8115V17.8231C18.8333 17.8231 18.6128 17.3585 18.6128 16.8773Z" fill="#2F292A"/>
<path d="M22.0603 17.3645L22.0668 17.3585V16.3578C22.0668 16.1389 21.9123 16.1066 21.8322 16.1066H21.7743V16.0246C21.8997 16.0246 22.024 16.0342 22.1483 16.0342C22.2581 16.0342 22.3698 16.0246 22.4765 16.0246V16.1066H22.4388C22.327 16.1066 22.2017 16.1258 22.2017 16.4439V17.6595C22.2017 17.7526 22.2017 17.8458 22.2163 17.9298H22.1141L20.7374 16.3956V17.4969C20.7374 17.73 20.7852 17.81 20.9906 17.81H21.0364V17.89C20.9206 17.89 20.8044 17.8785 20.6921 17.8785C20.5698 17.8785 20.4465 17.89 20.3262 17.89V17.81H20.3649C20.5487 17.81 20.605 17.6847 20.605 17.4702V16.3452C20.605 16.1962 20.4837 16.1066 20.3619 16.1066H20.3262V16.0246C20.4289 16.0246 20.533 16.0342 20.6347 16.0342C20.7153 16.0342 20.7913 16.0246 20.8728 16.0246L22.0603 17.3645Z" fill="#2F292A"/>
<path d="M22.2166 17.9415L22.1054 17.937L20.7498 16.4254V17.4966C20.7539 17.7296 20.7891 17.7966 20.991 17.7976H21.0463V17.8101V17.9013H21.0373C20.921 17.9013 20.8052 17.8907 20.693 17.8907C20.5702 17.8907 20.4468 17.9013 20.327 17.9013H20.3145V17.8897V17.7976H20.327H20.3658C20.541 17.7966 20.5898 17.6848 20.5933 17.4704V16.3454C20.5933 16.2009 20.477 16.1168 20.3623 16.1168H20.3145V16.1063V16.0142H20.327C20.4292 16.0142 20.5334 16.0237 20.6351 16.0237C20.7146 16.0237 20.7921 16.0142 20.8802 16.0152L22.0556 17.338V16.3574C22.0556 16.143 21.9126 16.1178 21.8326 16.1168H21.7646V16.1063V16.0142H21.7747C21.9015 16.0142 22.0249 16.0237 22.1487 16.0237C22.2589 16.0237 22.3677 16.0142 22.4774 16.0142H22.489V16.0247V16.1168H22.4774H22.4391C22.3279 16.1204 22.2141 16.1294 22.2111 16.444V17.6591C22.2111 17.7528 22.2141 17.8459 22.2262 17.9254L22.2302 17.9415H22.2166ZM22.1145 17.9184H22.2026C22.1915 17.8358 22.188 17.7503 22.188 17.6591V16.444C22.188 16.1229 22.3234 16.0937 22.4391 16.0927H22.4668V16.0378C22.3611 16.0378 22.2554 16.0479 22.1487 16.0479C22.0274 16.0479 21.9066 16.0378 21.7873 16.0378V16.0927H21.8326C21.9161 16.0937 22.0792 16.1314 22.0792 16.3574L22.0747 17.3682L22.0707 17.3722L22.0606 17.3808L20.8732 16.0378C20.7921 16.0378 20.7156 16.0479 20.6351 16.0479C20.5359 16.0479 20.4373 16.0378 20.3391 16.0378V16.0927H20.3623C20.4876 16.0937 20.616 16.1883 20.616 16.3454V17.4704C20.616 17.6848 20.5566 17.8207 20.3658 17.8207H20.3391V17.8786C20.4554 17.8786 20.5747 17.867 20.693 17.867C20.8032 17.867 20.9129 17.8786 21.0247 17.8786V17.8207H20.991C20.78 17.8207 20.7277 17.7296 20.7277 17.4966V16.367L22.1145 17.9184ZM22.0606 17.3647L22.0707 17.3556L22.0606 17.3647ZM22.0556 17.3586V17.3561L22.0535 17.3556L22.0556 17.3586Z" fill="#2F292A"/>
<path d="M22.9052 17.5083C22.8816 17.5984 22.8468 17.6684 22.8468 17.7162C22.8468 17.7962 22.9586 17.8103 23.0467 17.8103H23.0774V17.8898C22.9717 17.8828 22.8624 17.8783 22.7557 17.8783C22.6576 17.8783 22.5619 17.8828 22.4668 17.8898V17.8103H22.4829C22.5871 17.8103 22.6742 17.7479 22.7149 17.6362L23.1413 16.407C23.177 16.3113 23.2264 16.1769 23.242 16.0788C23.3275 16.0501 23.4338 15.9957 23.4846 15.9635C23.4926 15.9625 23.4957 15.9554 23.5062 15.9554C23.5128 15.9554 23.5193 15.9554 23.5238 15.9645C23.5309 15.9861 23.5405 16.0108 23.549 16.0325L24.0408 17.4303C24.0715 17.5244 24.1057 17.6221 24.1385 17.7031C24.1687 17.7781 24.227 17.8103 24.3161 17.8103H24.3292V17.8898C24.2124 17.8828 24.0911 17.8783 23.9628 17.8783C23.8314 17.8783 23.698 17.8828 23.5616 17.8898V17.8103H23.5908C23.6517 17.8103 23.7564 17.7987 23.7564 17.7333C23.7564 17.6986 23.7333 17.6256 23.7025 17.5405L23.5988 17.2294H22.9903L22.9052 17.5083ZM23.2958 16.3254H23.2918L23.0426 17.081H23.543L23.2958 16.3254Z" fill="#2F292A"/>
<path d="M24.3295 17.9012C24.2087 17.8967 24.0914 17.8906 23.9631 17.8906C23.8317 17.8906 23.6978 17.8967 23.5614 17.9012L23.5508 17.9037V17.8896V17.799H23.5614H23.5911C23.652 17.799 23.7431 17.7839 23.7456 17.7331C23.7456 17.7009 23.722 17.6294 23.6913 17.5428L23.5891 17.2423H23.0002L22.9176 17.5106C22.8914 17.6027 22.8587 17.6732 22.8587 17.716C22.8587 17.7804 22.9589 17.799 23.0465 17.799H23.0908V17.8101V17.9037L23.0777 17.9012C22.9694 17.8967 22.8622 17.8906 22.7555 17.8906C22.6579 17.8906 22.5622 17.8967 22.4671 17.9012L22.457 17.9037V17.8896V17.799H22.4671H22.4827C22.5804 17.7975 22.6644 17.7391 22.7042 17.6309L23.1305 16.4057C23.1653 16.3081 23.2121 16.1732 23.2398 16.0659C23.3213 16.0383 23.427 15.9854 23.4804 15.9512C23.4869 15.9487 23.496 15.9471 23.5065 15.9471C23.5111 15.9471 23.5262 15.9471 23.5337 15.9622C23.5418 15.9834 23.5508 16.0086 23.5569 16.0292L24.0502 17.4255C24.0829 17.5191 24.1146 17.6178 24.1493 17.6988C24.181 17.7703 24.2289 17.7975 24.3164 17.799H24.3426V17.8101V17.9037L24.3295 17.9012ZM23.5745 17.8785C23.7064 17.8725 23.8357 17.867 23.9631 17.867C24.0879 17.867 24.2027 17.8725 24.3195 17.8785V17.8206H24.3164C24.2243 17.8206 24.1624 17.7849 24.1282 17.7064C24.0945 17.6259 24.0597 17.5282 24.0295 17.4346L23.5372 16.0378C23.5292 16.0151 23.5201 15.9914 23.5141 15.9718L23.5111 15.9693H23.5065C23.5005 15.9693 23.496 15.9693 23.4924 15.9718C23.4386 16.0065 23.3319 16.0579 23.2513 16.08C23.2357 16.1812 23.1884 16.3141 23.1542 16.4117L22.7238 17.6394C22.6845 17.7552 22.5904 17.8206 22.4827 17.8206H22.4762V17.8785C22.5718 17.8725 22.6629 17.867 22.7555 17.867C22.8577 17.867 22.9649 17.8725 23.0656 17.8785V17.8206H23.0465C22.9629 17.8206 22.8396 17.8116 22.8356 17.716C22.8376 17.6636 22.8698 17.5946 22.896 17.506L22.905 17.5081L22.896 17.506L22.9835 17.2191H23.6072L23.7149 17.5362C23.7431 17.6223 23.7668 17.6913 23.7668 17.7331C23.7622 17.8136 23.652 17.8181 23.5911 17.8206H23.5745V17.8785ZM23.0278 17.0898L23.2845 16.3126H23.2921H23.2956V16.3252V16.3262V16.3252V16.3126H23.3057L23.5569 17.0898H23.0278ZM23.0591 17.0686H23.5262L23.2956 16.3508L23.0591 17.0686ZM23.2861 16.3277L23.2921 16.3262L23.2861 16.3277Z" fill="#2F292A"/>
<path d="M25.0061 17.6271C25.0061 17.7338 25.0801 17.7665 25.1657 17.7781C25.2744 17.7846 25.3957 17.7846 25.519 17.7711C25.6292 17.7595 25.7274 17.6961 25.7732 17.6271C25.8165 17.5692 25.8417 17.4942 25.8573 17.4358H25.9333C25.9056 17.5878 25.8678 17.7378 25.8356 17.8899C25.6016 17.8899 25.3655 17.8783 25.1319 17.8783C24.8979 17.8783 24.6603 17.8899 24.4277 17.8899V17.8103H24.463C24.5576 17.8103 24.6638 17.7962 24.6638 17.6306V16.2559C24.6638 16.118 24.5576 16.1064 24.463 16.1064H24.4277V16.0249C24.5652 16.0249 24.7056 16.034 24.8475 16.034C24.9829 16.034 25.1193 16.0249 25.2533 16.0249V16.1064H25.1853C25.0861 16.1064 25.0061 16.1075 25.0061 16.2504V17.6271Z" fill="#2F292A"/>
<path d="M25.8351 17.9015C25.6 17.9015 25.3649 17.8909 25.1314 17.8909C24.8973 17.8909 24.6602 17.9015 24.4241 17.9015H24.4141V17.8899V17.7988H24.4241H24.4624C24.557 17.7963 24.6507 17.7882 24.6522 17.6307V16.256C24.6507 16.1256 24.5606 16.1181 24.4624 16.1171H24.4141V16.1065V16.0144H24.4241C24.5651 16.0144 24.705 16.0235 24.847 16.0235C24.9829 16.0235 25.1158 16.0144 25.2527 16.0144H25.2637V16.0245V16.1171H25.2527H25.1847C25.0825 16.1201 25.0181 16.1131 25.0146 16.2505V17.6272C25.0146 17.7283 25.0825 17.753 25.1651 17.7666C25.2129 17.7701 25.2627 17.7701 25.3131 17.7701C25.3785 17.7701 25.4485 17.7686 25.5154 17.7606C25.6252 17.748 25.7203 17.6851 25.7651 17.6211C25.8048 17.5637 25.8305 17.4913 25.8446 17.4339L25.8477 17.4243H25.8567H25.9488L25.9463 17.4384C25.9146 17.5914 25.8783 17.7389 25.8477 17.8919L25.8446 17.9015H25.8351ZM25.826 17.8783C25.8567 17.7329 25.8924 17.5914 25.9211 17.4475H25.8668C25.8477 17.5064 25.8245 17.5778 25.7832 17.6352C25.7324 17.7052 25.6347 17.7701 25.5184 17.7837C25.4485 17.7933 25.3785 17.7963 25.3131 17.7963C25.2627 17.7963 25.2109 17.7943 25.1636 17.7882C25.078 17.7792 24.9919 17.7434 24.9919 17.6272V16.2505C24.9919 16.102 25.0856 16.0924 25.1847 16.0924H25.2411V16.0376C25.1107 16.0376 24.9794 16.0476 24.847 16.0476C24.7085 16.0476 24.5726 16.0376 24.4377 16.0376V16.0924H24.4624C24.557 16.0924 24.6753 16.109 24.6753 16.256V17.6307C24.6753 17.8033 24.557 17.8205 24.4624 17.8205H24.4377V17.8783C24.6673 17.8783 24.8998 17.8668 25.1314 17.8668C25.3604 17.8668 25.5965 17.8783 25.826 17.8783Z" fill="#2F292A"/>
<path d="M25.9025 15.9486C26.063 15.9486 26.1833 16.0744 26.1833 16.232C26.1833 16.3906 26.063 16.5119 25.9025 16.5119C25.7424 16.5119 25.6211 16.3906 25.6211 16.232C25.6211 16.0744 25.7424 15.9486 25.9025 15.9486ZM25.9025 16.458C26.0283 16.458 26.126 16.3508 26.126 16.232C26.126 16.1092 26.0283 16.0015 25.9025 16.0015C25.7766 16.0015 25.681 16.1092 25.681 16.232C25.681 16.3508 25.7766 16.458 25.9025 16.458ZM25.762 16.3805V16.3644C25.7978 16.3624 25.8033 16.3624 25.8033 16.3417V16.1318C25.8033 16.1031 25.8003 16.0926 25.764 16.0941V16.08H25.9055C25.9593 16.08 26.0026 16.1041 26.0026 16.1545C26.0026 16.1963 25.9755 16.2285 25.9372 16.2375L25.983 16.3035C26.0026 16.3322 26.0283 16.3624 26.0439 16.3714V16.3805H25.9886C25.9629 16.3805 25.9397 16.3256 25.8879 16.2506H25.8572V16.3453C25.8572 16.3624 25.8632 16.3624 25.8979 16.3644V16.3805H25.762ZM25.8572 16.232H25.8894C25.9256 16.232 25.9422 16.2043 25.9422 16.158C25.9422 16.1132 25.9186 16.0981 25.8879 16.0981H25.8572V16.232Z" fill="#2F292A"/>
</svg>
