<svg width="48" height="48" viewBox="0 0 48 48" fill="none" xmlns="http://www.w3.org/2000/svg">
<path fill-rule="evenodd" clip-rule="evenodd" d="M30.316 27.0165C31.2283 27.9289 31.2283 29.4035 30.316 30.3159C29.861 30.7709 29.2637 30.9995 28.6663 30.9995C28.069 30.9995 27.4717 30.7709 27.0167 30.3159L23.9997 27.2989L20.9827 30.3159C20.5277 30.7709 19.9304 30.9995 19.333 30.9995C18.7357 30.9995 18.1384 30.7709 17.6834 30.3159C16.771 29.4035 16.771 27.9289 17.6834 27.0165L20.7003 23.9995L17.6834 20.9825C16.771 20.0702 16.771 18.5955 17.6834 17.6832C18.5957 16.7709 20.0704 16.7709 20.9827 17.6832L23.9997 20.7002L27.0167 17.6832C27.929 16.7709 29.4037 16.7709 30.316 17.6832C31.2283 18.5955 31.2283 20.0702 30.316 20.9825L27.299 23.9995L30.316 27.0165ZM23.9994 0.666504C11.1333 0.666504 0.666016 11.1338 0.666016 23.9998C0.666016 36.8658 11.1333 47.3332 23.9994 47.3332C36.8654 47.3332 47.3327 36.8658 47.3327 23.9998C47.3327 11.1338 36.8654 0.666504 23.9994 0.666504Z" fill="#FF4B4B"/>
</svg>
