<svg width="48" height="48" viewBox="0 0 48 48" fill="none" xmlns="http://www.w3.org/2000/svg">
<path fill-rule="evenodd" clip-rule="evenodd" d="M24 17C22.712 17 21.6667 15.9547 21.6667 14.6667C21.6667 13.3787 22.712 12.3334 24 12.3334C25.288 12.3334 26.3334 13.3787 26.3334 14.6667C26.3334 15.9547 25.288 17 24 17ZM26.3334 33.3334C26.3334 34.6213 25.288 35.6667 24 35.6667C22.712 35.6667 21.6667 34.6213 21.6667 33.3334V21.6667C21.6667 20.3787 22.712 19.3334 24 19.3334C25.288 19.3334 26.3334 20.3787 26.3334 21.6667V33.3334ZM24 0.666687C11.113 0.666687 0.666687 11.113 0.666687 24C0.666687 36.887 11.113 47.3334 24 47.3334C36.8847 47.3334 47.3334 36.887 47.3334 24C47.3334 11.113 36.8847 0.666687 24 0.666687Z" fill="#007EFF"/>
</svg>
