<svg width="26" height="18" viewBox="0 0 26 18" fill="none" xmlns="http://www.w3.org/2000/svg">
<rect x="0.473618" width="24.5806" height="18" rx="2" fill="#EE3831"/>
<path d="M23.5631 2.70966H2.27954V15.4838H23.5631V2.70966Z" fill="#EE3831"/>
<path d="M15.0538 9.77586C15.0404 9.75003 15.0273 9.72357 15.0149 9.69647C15.0273 9.72357 15.0404 9.75003 15.0538 9.77586Z" fill="#733D96"/>
<path d="M6.71685 11.6512H5.98668C5.89425 11.6512 5.80951 11.7045 5.77004 11.7877L4.9346 13.5644L4.08408 11.7864C4.04492 11.7042 3.96019 11.6512 3.8684 11.6512H3.16455C3.03296 11.6512 2.92576 11.7572 2.92576 11.8875V14.3703C2.92576 14.5007 3.03296 14.6066 3.16455 14.6066H3.52819C3.65978 14.6066 3.76698 14.5007 3.76698 14.3703V12.9335L4.51897 14.4731C4.55845 14.5543 4.64286 14.6066 4.73401 14.6066H5.12589C5.218 14.6066 5.30273 14.5536 5.34157 14.4714L6.09869 12.8892V14.3703C6.09869 14.5007 6.20589 14.6066 6.33748 14.6066H6.71685C6.84843 14.6066 6.95563 14.5007 6.95563 14.3703V11.8875C6.95563 11.7572 6.84843 11.6512 6.71685 11.6512Z" fill="white"/>
<path d="M9.65528 11.769C9.61291 11.6965 9.53364 11.6512 9.44858 11.6512H8.93698C8.85257 11.6512 8.77362 11.6959 8.73126 11.7674L7.25263 14.2506C7.20963 14.3228 7.20866 14.413 7.25038 14.4862C7.29243 14.5604 7.37234 14.6066 7.45868 14.6066H7.85698C7.94203 14.6066 8.02131 14.5613 8.06367 14.4885L8.32204 14.0455C8.32332 14.0475 8.32461 14.0497 8.32589 14.052C8.36569 14.1219 8.44111 14.1653 8.52232 14.1653H10.0918L10.2798 14.4885C10.3222 14.5613 10.4015 14.6066 10.4865 14.6066H10.907C10.993 14.6066 11.0726 14.5607 11.115 14.4869C11.1564 14.414 11.156 14.3241 11.1137 14.2519L9.65528 11.769ZM8.64909 13.4848L9.17385 12.5855L9.69635 13.4848H8.65872C8.65551 13.4848 8.6523 13.4848 8.64909 13.4848Z" fill="white"/>
<path d="M14.8606 12.791H13.2821C13.1505 12.791 13.0433 12.8969 13.0433 13.0272V13.2792C13.0433 13.4095 13.1505 13.5154 13.2821 13.5154H14.2636V13.6659C14.0126 13.8328 13.6579 13.931 13.2969 13.931C12.6107 13.931 12.1495 13.6088 12.1495 13.129C12.1495 12.6447 12.5998 12.3317 13.2969 12.3317C13.6788 12.3317 14.0412 12.4591 14.1984 12.6482C14.2812 12.7483 14.4273 12.7653 14.5306 12.6867L14.796 12.4819C14.8506 12.4399 14.8846 12.3767 14.8898 12.3089C14.8949 12.2422 14.8715 12.1764 14.8253 12.1276C14.5232 11.8089 13.9234 11.6028 13.2969 11.6028C12.0599 11.6028 11.2287 12.2162 11.2287 13.129C11.2287 14.0418 12.0599 14.6551 13.2969 14.6551C13.9442 14.6551 14.5669 14.4673 15.0047 14.1406C15.064 14.0963 15.0993 14.026 15.0993 13.9519V13.0272C15.0993 12.8969 14.9921 12.791 14.8606 12.791Z" fill="white"/>
<path d="M18.4735 11.6512H18.0887C17.9571 11.6512 17.8499 11.7572 17.8499 11.8875V13.5038L16.4336 11.7405C16.388 11.6837 16.3199 11.6512 16.2468 11.6512H15.7493C15.6174 11.6512 15.5102 11.7572 15.5102 11.8875V14.3703C15.5102 14.5007 15.6174 14.6066 15.7493 14.6066H16.1338C16.2657 14.6066 16.3726 14.5007 16.3726 14.3703V12.9482L17.6294 14.5167C17.6747 14.5738 17.743 14.6066 17.8169 14.6066H18.4735C18.6051 14.6066 18.7123 14.5007 18.7123 14.3703V11.8875C18.7123 11.7572 18.6051 11.6512 18.4735 11.6512Z" fill="white"/>
<path d="M22.8778 14.2519L21.4194 11.7694C21.377 11.6965 21.2977 11.6512 21.2127 11.6512H20.7011C20.617 11.6512 20.538 11.6959 20.495 11.7674L19.017 14.2503C18.9737 14.3225 18.9727 14.4127 19.0141 14.4859C19.0565 14.5604 19.1364 14.6066 19.2224 14.6066H19.6207C19.7058 14.6066 19.7851 14.5613 19.8278 14.4885L20.0861 14.0455C20.0874 14.0475 20.0884 14.0497 20.0896 14.0516C20.1294 14.1216 20.2049 14.1653 20.2861 14.1653H21.8558L22.0436 14.4885C22.0863 14.5613 22.1656 14.6066 22.2506 14.6066H22.6711C22.7568 14.6066 22.8367 14.5607 22.879 14.4869C22.9204 14.414 22.9201 14.3241 22.8778 14.2519ZM20.4132 13.4848L20.9376 12.5855L21.4604 13.4848H20.4228C20.4196 13.4848 20.4164 13.4848 20.4132 13.4848Z" fill="white"/>
<path d="M11.4399 9.6227C11.4085 9.56654 11.3459 9.53444 11.2833 9.5399C11.2191 9.54535 11.1645 9.58772 11.1434 9.64838C10.9553 10.1847 10.8346 10.1622 10.8295 10.1632C10.5198 10.152 10.0858 8.99813 9.70293 7.9804C9.47923 7.38471 9.37235 7.05252 9.08927 6.42763C9.06263 6.36922 9.00486 6.33199 8.94067 6.33167H8.94035C8.87647 6.33167 8.81839 6.3689 8.79207 6.42699L8.6088 6.82786C8.58955 6.87022 8.58923 6.91901 8.60816 6.96169C8.83829 7.48067 8.90023 7.68319 9.10243 8.21052C9.67821 9.71225 10.133 10.8985 10.825 10.9129H10.8352C11.1735 10.9129 11.3472 10.7887 11.6434 10.1077C11.6627 10.0631 11.6575 10.0117 11.6338 9.96901L11.4399 9.6227Z" fill="white"/>
<path d="M11.9354 7.29697V7.29729L12.0981 7.60958C12.1263 7.66414 12.1825 7.69752 12.2428 7.69752C12.2493 7.69752 12.256 7.6972 12.2627 7.69623C12.3301 7.68789 12.3857 7.63846 12.4014 7.57235L12.6309 6.61302C12.6918 6.35947 12.7551 6.09725 12.8305 5.84531C12.8356 5.82862 12.8408 5.81193 12.8459 5.79492V5.79717C12.8629 5.7426 12.8819 5.6858 12.9046 5.62995C12.9274 5.6858 12.9464 5.7426 12.9634 5.79717V5.79492C12.9685 5.81193 12.9736 5.82862 12.9788 5.84531C13.0542 6.09725 13.1174 6.35947 13.1784 6.61302L13.4079 7.57235C13.4236 7.63846 13.4791 7.68789 13.5465 7.69623C13.5533 7.6972 13.56 7.69752 13.5664 7.69752C13.6268 7.69752 13.6829 7.66414 13.7112 7.60958L13.8739 7.29729V7.29697C13.8906 7.26455 13.9137 7.22059 13.9201 7.16346C13.9272 7.10504 13.914 7.05433 13.9054 7.02063C13.777 6.51963 13.7584 6.47437 13.6085 5.96246C13.5388 5.72559 13.4551 5.45086 13.3386 5.18543C13.2798 5.05095 13.2083 4.91262 13.0841 4.80959C13.0311 4.76627 12.9685 4.74541 12.9046 4.74637C12.8408 4.74541 12.7782 4.76627 12.7252 4.80959C12.601 4.91262 12.5294 5.05095 12.4707 5.18543C12.3542 5.45086 12.2704 5.72559 12.2008 5.96246C12.0509 6.47437 12.0323 6.51963 11.9039 7.02063C11.8953 7.05433 11.8821 7.10504 11.8891 7.16346C11.8956 7.22059 11.9187 7.26455 11.9354 7.29697Z" fill="white"/>
<path d="M17.0173 6.42699C16.9909 6.36889 16.9329 6.33167 16.869 6.33167H16.8683C16.8045 6.33167 16.7467 6.36922 16.7201 6.42763C16.437 7.05252 16.3301 7.38471 16.1061 7.9804C15.7235 8.99813 15.2896 10.152 14.9799 10.1632C14.9747 10.1622 14.854 10.1847 14.666 9.64838C14.6448 9.58772 14.5899 9.54535 14.526 9.53958C14.4631 9.53412 14.4009 9.56654 14.3694 9.6227L14.1756 9.96901C14.1518 10.0114 14.1467 10.063 14.1659 10.1077C14.4622 10.7887 14.6358 10.9129 14.9741 10.9129H14.9844C15.6763 10.8985 16.1311 9.71225 16.7069 8.21052C16.9091 7.68319 16.971 7.48067 17.2012 6.96169C17.2201 6.91901 17.2198 6.87022 17.2005 6.82753L17.0173 6.42699Z" fill="white"/>
<path d="M20.0472 5.64978C20.0392 5.61095 20.0309 5.57308 20.0225 5.53713C20.0212 5.53072 20.0196 5.52429 20.018 5.51787C20.0158 5.5076 20.0132 5.49765 20.011 5.48771C20.0093 5.48129 20.0077 5.47487 20.0061 5.46877C20.0023 5.45336 19.9984 5.43828 19.9946 5.42352C19.9939 5.42095 19.993 5.41806 19.9923 5.41549C19.9911 5.40939 19.9898 5.40361 19.9882 5.3988C19.9882 5.39816 19.9878 5.39752 19.9878 5.39688C19.9869 5.39399 19.9859 5.39078 19.985 5.38789C19.7176 4.39165 19.3812 3.49106 18.7265 3.48529H18.7223C18.3404 3.48529 18.084 3.65828 17.5255 4.74085C17.5021 4.78643 17.5014 4.84003 17.5236 4.88624L17.7017 5.25823C17.7287 5.31471 17.7858 5.35066 17.8484 5.35098H17.849C17.9113 5.35098 17.9684 5.31535 17.9957 5.25919C18.5272 4.16057 18.6877 4.23022 18.723 4.2315C18.9207 4.24081 19.5889 4.60734 19.888 8.93761C19.8421 9.44023 19.7224 9.74288 19.5671 9.74769C19.5664 9.74802 19.5658 9.74802 19.5651 9.74802C19.3155 9.74802 18.7682 8.30951 18.4412 7.44904C17.7803 5.71205 17.097 3.91601 16.2456 3.91601C16.2401 3.91601 16.235 3.91601 16.2298 3.91633C15.4223 3.93719 14.9104 5.21747 14.3683 6.57317C13.9472 7.62621 13.4722 8.81469 12.9635 8.89589V8.89525C12.9439 8.89846 12.9243 8.90038 12.9048 8.90038C12.8852 8.90038 12.8656 8.89846 12.846 8.89525V8.89589C12.3373 8.81469 11.862 7.62621 11.4409 6.57317C10.8988 5.21747 10.3869 3.93719 9.57971 3.91633C9.57425 3.91601 9.56912 3.91601 9.56398 3.91601C8.71217 3.91601 8.02919 5.71205 7.36835 7.44904C7.04098 8.30951 6.49376 9.74802 6.24406 9.74802C6.24342 9.74802 6.24278 9.74802 6.24213 9.74769C6.08679 9.74288 5.96707 9.44023 5.92118 8.93761C6.2203 4.60734 6.88853 4.24081 7.08655 4.2315C7.12186 4.23022 7.28201 4.16057 7.81383 5.25919C7.84079 5.31535 7.89792 5.35098 7.9605 5.35098H7.96115C8.02341 5.35066 8.08054 5.31471 8.1075 5.25823L8.28595 4.88624C8.3081 4.84003 8.30713 4.78643 8.2837 4.74085C7.72557 3.65828 7.46913 3.48529 7.08687 3.48529H7.08302C6.42796 3.49106 6.0916 4.39165 5.82425 5.38789C5.82329 5.39078 5.82233 5.39399 5.82168 5.39688C5.82136 5.39752 5.82136 5.39816 5.82104 5.3988C5.81976 5.40361 5.81816 5.40939 5.81687 5.41549C5.81622 5.41806 5.81558 5.42095 5.81494 5.42352C5.81077 5.43828 5.80692 5.45336 5.80307 5.46877C5.80178 5.47487 5.80018 5.48129 5.79857 5.48771C5.79601 5.49765 5.79376 5.5076 5.7912 5.51787C5.78991 5.52429 5.78831 5.53072 5.7867 5.53713C5.77835 5.57308 5.77033 5.61095 5.76199 5.64978C5.46864 6.94996 5.01192 9.76728 5.6856 10.621C5.82682 10.8004 6.0226 10.8922 6.23346 10.8922C6.97486 10.8864 7.48678 9.47328 8.07958 7.83707C8.52698 6.60269 9.08319 5.06726 9.56815 5.06726H9.57136C9.99758 5.07304 10.3176 6.13378 10.627 7.15986C11.0959 8.71551 11.6277 10.4788 12.9035 10.4814H12.9041H12.9044H12.9048H12.9051H12.9057C14.1815 10.4788 14.7133 8.71551 15.1826 7.15986C15.492 6.13378 15.8119 5.07304 16.2382 5.06726H16.2414C16.7263 5.06726 17.2825 6.60269 17.7296 7.83707C18.3224 9.47328 18.8343 10.8864 19.5757 10.8922C19.7869 10.8922 19.9824 10.8004 20.1236 10.621C20.7976 9.76728 20.3409 6.94996 20.0472 5.64978Z" fill="white"/>
</svg>
