<svg width="28" height="20" viewBox="0 0 28 20" fill="none" xmlns="http://www.w3.org/2000/svg">
<path d="M7.41454 18.8158V17.6913C7.41454 17.27 7.16085 16.9886 6.72745 16.9856C6.49993 16.9816 6.26386 17.053 6.09876 17.3027C5.97594 17.1044 5.78164 16.9856 5.50932 16.9856C5.31805 16.9856 5.1167 17.0374 4.97173 17.2473V17.0309H4.61133V18.8158H4.97425V17.7925C4.97425 17.4819 5.162 17.3183 5.42627 17.3183C5.68499 17.3183 5.82997 17.4859 5.82997 17.7889V18.8158H6.19288V17.7925C6.19288 17.4819 6.38819 17.3183 6.6449 17.3183C6.91017 17.3183 7.05263 17.4859 7.05263 17.7889V18.8158H7.41454ZM13.2374 17.0309H12.5876V16.4883H12.2252V17.0309H11.8471V17.355H12.2252V18.1997C12.2252 18.615 12.3706 18.8611 12.8302 18.8611C12.9993 18.8611 13.1916 18.8098 13.3164 18.7232L13.2042 18.4056C13.0889 18.472 12.9616 18.5062 12.8604 18.5062C12.6661 18.5062 12.5876 18.3869 12.5876 18.2072V17.355H13.2374V17.0309ZM16.552 16.9856C16.3285 16.9856 16.1675 17.0903 16.0658 17.2473V17.0309H15.7119V18.8158H16.0713V17.8116C16.0713 17.5166 16.2123 17.3253 16.4665 17.3253C16.546 17.3253 16.6275 17.3364 16.7101 17.3707L16.8284 17.0344C16.7438 16.9997 16.6316 16.9856 16.552 16.9856ZM11.5406 17.1728C11.3548 17.0485 11.0961 16.9856 10.8117 16.9856C10.3587 16.9856 10.0823 17.199 10.0823 17.5539C10.0823 17.8453 10.2852 18.021 10.6849 18.0759L10.8686 18.103C11.0815 18.1322 11.1978 18.2072 11.1978 18.3074C11.1978 18.4463 11.0397 18.5364 10.7755 18.5364C10.4946 18.5364 10.3119 18.4509 10.18 18.3497L9.99728 18.6296C10.2626 18.8239 10.5802 18.8611 10.7709 18.8611C11.2864 18.8611 11.5708 18.622 11.5708 18.2817C11.5708 17.9686 11.3548 17.8076 10.9612 17.7517L10.7785 17.7255C10.6109 17.7024 10.4604 17.651 10.4604 17.5312C10.4604 17.3999 10.6018 17.3113 10.8162 17.3113C11.0448 17.3113 11.2647 17.3963 11.373 17.4643L11.5406 17.1728ZM16.9603 17.9228C16.9603 18.4655 17.3227 18.8611 17.899 18.8611C18.1678 18.8611 18.346 18.8022 18.5403 18.6477L18.3536 18.3673C18.2076 18.472 18.0556 18.5289 17.8869 18.5289C17.5764 18.5254 17.3337 18.2817 17.3337 17.9228C17.3337 17.5644 17.5764 17.3223 17.8869 17.3183C18.0556 17.3183 18.2076 17.3742 18.3536 17.4794L18.5403 17.199C18.346 17.045 18.1678 16.9856 17.899 16.9856C17.3227 16.9856 16.9603 17.3812 16.9603 17.9228ZM14.448 16.9856C13.926 16.9856 13.5661 17.3626 13.5661 17.9198C13.5661 18.4876 13.9401 18.8611 14.4742 18.8611C14.744 18.8611 14.9901 18.7937 15.2071 18.6104L15.0168 18.3457C14.8663 18.4655 14.6755 18.5324 14.4973 18.5324C14.2471 18.5324 13.9929 18.391 13.9481 18.0688H15.2816C15.2851 18.021 15.2896 17.9722 15.2896 17.9198C15.2851 17.3626 14.9493 16.9856 14.448 16.9856ZM14.4414 17.3183C14.7067 17.3183 14.8864 17.49 14.9116 17.7703H13.9481C13.9804 17.5086 14.1525 17.3183 14.4414 17.3183ZM9.60466 17.9228V17.0309H9.24627V17.2473C9.12244 17.0868 8.9221 16.9856 8.6669 16.9856C8.16656 16.9856 7.78551 17.3782 7.78551 17.9228C7.78551 18.469 8.16656 18.8611 8.6669 18.8611C8.9221 18.8611 9.12244 18.7604 9.24627 18.5999V18.8158H9.60466V17.9228ZM8.158 17.9228C8.158 17.5866 8.37143 17.3183 8.71673 17.3183C9.04442 17.3183 9.26187 17.576 9.26187 17.9228C9.26187 18.2717 9.04442 18.5289 8.71673 18.5289C8.37143 18.5289 8.158 18.2601 8.158 17.9228ZM21.9485 16.9856C21.7251 16.9856 21.564 17.0903 21.4633 17.2473V17.0309H21.1074V18.8158H21.4683V17.8116C21.4683 17.5166 21.6088 17.3253 21.8635 17.3253C21.942 17.3253 22.0241 17.3364 22.1061 17.3707L22.2264 17.0344C22.1398 16.9997 22.0271 16.9856 21.9485 16.9856ZM24.8283 18.5576C24.8529 18.5576 24.8761 18.5626 24.8972 18.5722C24.9199 18.5817 24.939 18.5933 24.9546 18.6099C24.9717 18.626 24.9833 18.6447 24.9944 18.6658C25.0034 18.6879 25.007 18.7096 25.007 18.7353C25.007 18.7594 25.0034 18.7821 24.9944 18.8027C24.9833 18.8249 24.9717 18.8445 24.9546 18.8591C24.939 18.8762 24.9199 18.8898 24.8972 18.8973C24.8761 18.9074 24.8529 18.9114 24.8283 18.9114C24.8016 18.9114 24.7784 18.9074 24.7558 18.8973C24.7346 18.8898 24.7145 18.8762 24.6984 18.8591C24.6828 18.8445 24.6682 18.8249 24.6607 18.8027C24.6501 18.7821 24.6456 18.7594 24.6456 18.7353C24.6456 18.7096 24.6501 18.6879 24.6607 18.6658C24.6682 18.6447 24.6828 18.626 24.6984 18.6099C24.7145 18.5933 24.7346 18.5817 24.7558 18.5722C24.7784 18.5626 24.8016 18.5576 24.8283 18.5576ZM24.8283 18.8732C24.8469 18.8732 24.865 18.8692 24.8811 18.8611C24.8972 18.8546 24.9118 18.845 24.9249 18.8329C24.937 18.8198 24.9476 18.8047 24.9536 18.7886C24.9612 18.772 24.9642 18.7549 24.9642 18.7353C24.9642 18.7151 24.9612 18.698 24.9536 18.6804C24.9476 18.6643 24.937 18.6492 24.9249 18.6371C24.9118 18.624 24.8972 18.615 24.8811 18.6079C24.865 18.6004 24.8469 18.5968 24.8283 18.5968C24.8086 18.5968 24.79 18.6004 24.7724 18.6079C24.7558 18.615 24.7417 18.624 24.7286 18.6371C24.717 18.6492 24.7065 18.6643 24.6994 18.6804C24.6919 18.698 24.6883 18.7151 24.6883 18.7353C24.6883 18.7549 24.6919 18.772 24.6994 18.7886C24.7065 18.8047 24.717 18.8198 24.7286 18.8329C24.7417 18.845 24.7558 18.8546 24.7724 18.8611C24.79 18.8692 24.8086 18.8732 24.8283 18.8732ZM24.8373 18.6522C24.8595 18.6522 24.8756 18.6562 24.8872 18.6658C24.8987 18.6759 24.9043 18.689 24.9043 18.7041C24.9043 18.7181 24.8987 18.7297 24.8902 18.7378C24.8811 18.7468 24.8685 18.7524 24.8509 18.7549L24.9043 18.8158H24.8625L24.8132 18.7549H24.7971V18.8158H24.7623V18.6522H24.8373ZM24.7971 18.6824V18.7277H24.8373C24.8469 18.7277 24.8539 18.7237 24.8595 18.7207C24.866 18.7171 24.8685 18.7116 24.8685 18.7041C24.8685 18.697 24.866 18.6915 24.8595 18.689C24.8539 18.6849 24.8469 18.6824 24.8373 18.6824H24.7971ZM20.5754 17.9228V17.0309H20.215V17.2473C20.0927 17.0868 19.8903 16.9856 19.6361 16.9856C19.1343 16.9856 18.7537 17.3782 18.7537 17.9228C18.7537 18.469 19.1343 18.8611 19.6361 18.8611C19.8903 18.8611 20.0927 18.7604 20.215 18.5999V18.8158H20.5754V17.9228ZM19.1272 17.9228C19.1272 17.5866 19.3406 17.3183 19.6844 17.3183C20.0141 17.3183 20.2301 17.576 20.2301 17.9228C20.2301 18.2717 20.0141 18.5289 19.6844 18.5289C19.3406 18.5289 19.1272 18.2601 19.1272 17.9228ZM24.181 17.9228V16.3136H23.8221V17.2473C23.6977 17.0868 23.4959 16.9856 23.2422 16.9856C22.7418 16.9856 22.3608 17.3782 22.3608 17.9228C22.3608 18.469 22.7418 18.8611 23.2422 18.8611C23.4959 18.8611 23.6977 18.7604 23.8221 18.5999V18.8158H24.181V17.9228ZM22.7328 17.9228C22.7328 17.5866 22.9472 17.3183 23.291 17.3183C23.6187 17.3183 23.8356 17.576 23.8356 17.9228C23.8356 18.2717 23.6187 18.5289 23.291 18.5289C22.9472 18.5289 22.7328 18.2601 22.7328 17.9228Z" fill="black"/>
<path d="M17.5912 3.43622H11.123V14.0007H17.5912V3.43622Z" fill="#F37A2B"/>
<path d="M11.7903 8.71884C11.7903 6.57554 12.7945 4.6663 14.3564 3.43659C13.2148 2.53709 11.7721 2 10.2052 2C6.49491 2 3.48633 5.00758 3.48633 8.71884C3.48633 12.4291 6.49491 15.4377 10.2052 15.4377C11.7721 15.4377 13.2148 14.9016 14.3564 14.0011C12.7945 12.7709 11.7903 10.8616 11.7903 8.71884Z" fill="#EA3630"/>
<path d="M24.588 12.8823V12.6654H24.6741V12.6216H24.4531V12.6654H24.5402V12.8823H24.588ZM25.0184 12.8823V12.6211H24.9519L24.8724 12.8003L24.7949 12.6211H24.7264V12.8823H24.7743V12.6855L24.8472 12.8547H24.8976L24.9701 12.6845V12.8823H25.0184Z" fill="white"/>
<path d="M25.229 8.71878C25.229 12.429 22.2199 15.4376 18.5096 15.4376C16.9432 15.4376 15.5006 14.9016 14.3574 14.001C15.9198 12.7708 16.9246 10.8616 16.9246 8.71878C16.9246 6.57548 15.9198 4.66623 14.3574 3.43653C15.5006 2.53702 16.9432 1.99994 18.5096 1.99994C22.2199 1.99994 25.229 5.00752 25.229 8.71878Z" fill="#F9AC22"/>
</svg>
