<svg width="24" height="28" viewBox="0 0 24 28" fill="none" xmlns="http://www.w3.org/2000/svg">
<path d="M12.298 0.734205L23.5293 5.20742C23.8116 5.32751 24 5.5977 24 5.89792V15.8351C24.0312 22.1696 18.6352 27.3333 12.0156 27.3333C5.39605 27.3333 0 22.1696 0 15.8351V5.89792C0 5.5977 0.188234 5.32751 0.470586 5.20742L11.7019 0.734205C11.8901 0.64414 12.1097 0.64414 12.298 0.734205ZM12 2.10014L1.48264 6.18196V15.6285C1.48264 20.5954 5.53071 25.9903 12 25.9903C18.3929 25.9903 22.6667 20.6226 22.6667 15.6285V6.18196L12 2.10014ZM16.3887 10.3305C16.6549 10.0686 17.0831 10.0722 17.3449 10.3384C17.6179 10.6159 17.6217 11.0599 17.3535 11.342L10.5083 18.5461C10.4733 18.5979 10.4308 18.6458 10.3808 18.6882C10.3592 18.7067 10.3368 18.7237 10.3142 18.7381C10.0932 18.9175 9.78721 18.9421 9.54317 18.8099C9.45031 18.7689 9.36391 18.7094 9.28966 18.6317L5.71097 14.8882C5.4326 14.597 5.43641 14.1372 5.71956 13.8506C5.72299 13.8472 5.72645 13.8437 5.72995 13.8403C6.01074 13.5677 6.45941 13.5743 6.73208 13.8551L9.90822 17.127L16.3736 10.3459C16.3785 10.3407 16.3836 10.3356 16.3887 10.3305Z" fill="#FFC058"/>
</svg>
