<svg width="32" height="20" viewBox="0 0 32 20" fill="none" xmlns="http://www.w3.org/2000/svg">
<path d="M31.4869 0H0V20H31.4869V0Z" fill="white"/>
<path d="M30.9627 16.7493H0.525391V19.4752H30.9627V16.7493Z" fill="#F7B600"/>
<path d="M30.9627 0.52478H0.525391V3.25073H30.9627V0.52478Z" fill="#1A1F71"/>
<path d="M12.7113 6.25363L9.56261 13.7609H7.50722L5.96203 7.76967C5.87457 7.40523 5.7871 7.25946 5.49556 7.11369C5.02909 6.86588 4.25649 6.61806 3.58594 6.47229L3.62967 6.25363H6.93871C7.36145 6.25363 7.74046 6.5306 7.82792 7.01165L8.64425 11.3702L10.6559 6.26821H12.7113V6.25363ZM20.7434 11.3119C20.7579 9.32943 18.0028 9.22739 18.032 8.33818C18.032 8.07579 18.2944 7.78424 18.8483 7.71136C19.1253 7.6822 19.8979 7.65305 20.7579 8.04663L21.0932 6.45771C20.6267 6.28279 20.0291 6.12244 19.2711 6.12244C17.3469 6.12244 16.0058 7.14284 15.9912 8.60057C15.9766 9.67929 16.9533 10.277 17.6821 10.6414C18.4402 11.0058 18.688 11.2391 18.688 11.5743C18.688 12.0845 18.0903 12.3032 17.5218 12.3032C16.5451 12.3178 15.9766 12.0408 15.5247 11.8221L15.1749 13.4694C15.6268 13.6735 16.4722 13.863 17.3323 13.863C19.4023 13.8775 20.7434 12.8717 20.7434 11.3119ZM25.8163 13.7609H27.6093L26.0349 6.25363H24.3731C23.9941 6.25363 23.688 6.47229 23.5422 6.80757L20.6268 13.7609H22.6676L23.0757 12.6385H25.5684L25.8163 13.7609ZM23.6442 11.1079L24.6646 8.29445L25.2477 11.1079H23.6442ZM15.481 6.25363L13.8775 13.7609H11.9387L13.5422 6.25363H15.481Z" fill="#1A1F71"/>
</svg>
